<svg width="24" height="24" fill="none" viewBox="0 0 24 24" xmlns="http://www.w3.org/2000/svg">
  <path fill="#FEFEFF" d="M9.849 10.31c-.602 0-1.077.524-1.077 1.165 0 .64.486 1.165 1.077 1.165.602 0 1.077-.525 1.077-1.165.01-.64-.475-1.166-1.077-1.166m3.854 0c-.601 0-1.077.524-1.077 1.165 0 .64.486 1.165 1.077 1.165.602 0 1.078-.525 1.078-1.165s-.476-1.166-1.078-1.166"/>
  <path fill="#FEFEFF" d="M18.835 1.5H4.685A2.164 2.164 0 0 0 2.52 3.663v14.196c0 1.197.971 2.163 2.165 2.163H16.66l-.56-1.942 1.352 1.25 1.278 1.175L21 22.5V3.663A2.164 2.164 0 0 0 18.835 1.5M14.76 15.213s-.38-.451-.697-.85c1.384-.389 1.912-1.25 1.912-1.25a6 6 0 0 1-1.215.62 7 7 0 0 1-1.531.451 7.4 7.4 0 0 1-2.735-.01 9 9 0 0 1-1.553-.452 6 6 0 0 1-.77-.357c-.032-.021-.064-.031-.095-.053-.022-.01-.032-.02-.043-.031-.19-.105-.295-.179-.295-.179s.506.84 1.848 1.24c-.317.399-.708.871-.708.871-2.334-.073-3.22-1.596-3.22-1.596 0-3.381 1.52-6.122 1.52-6.122 1.52-1.134 2.967-1.102 2.967-1.102l.106.126c-1.9.546-2.777 1.375-2.777 1.375s.232-.126.623-.304c1.13-.494 2.027-.63 2.397-.662.063-.01.116-.02.18-.02a8.64 8.64 0 0 1 5.312.987s-.835-.788-2.63-1.334l.147-.168s1.447-.032 2.968 1.102c0 0 1.52 2.74 1.52 6.122 0 0-.897 1.523-3.23 1.596"/>
</svg>
