<svg width="24" height="24" fill="none" viewBox="0 0 24 24" xmlns="http://www.w3.org/2000/svg">
  <path fill="#FEFEFF" fill-rule="evenodd" d="M12 2.25c-5.384 0-9.75 4.477-9.75 9.998 0 4.416 2.794 8.164 6.668 9.485.488.093.667-.217.667-.482 0-.238-.01-1.026-.013-1.86-2.714.604-3.285-1.179-3.285-1.179-.444-1.155-1.082-1.463-1.082-1.463-.885-.621.066-.608.066-.608.979.071 1.495 1.03 1.495 1.03.87 1.528 2.281 1.086 2.837.83.087-.645.34-1.087.618-1.337-2.165-.253-4.441-1.11-4.441-4.94 0-1.09.38-1.983 1.004-2.683-.102-.252-.434-1.268.094-2.645 0 0 .818-.269 2.681 1.024A9 9 0 0 1 12 7.084a9 9 0 0 1 2.443.336c1.861-1.293 2.678-1.024 2.678-1.024.531 1.377.197 2.393.095 2.645.625.7 1.003 1.592 1.003 2.684 0 3.838-2.281 4.684-4.451 4.933.35.31.662.918.662 1.85 0 1.338-.011 2.414-.011 2.743 0 .267.176.578.67.48 3.871-1.322 6.66-5.068 6.66-9.483 0-5.521-4.365-9.998-9.749-9.998" clip-rule="evenodd"/>
  <path fill="#FEFEFF" d="M5.943 16.603c-.021.05-.099.065-.168.03-.071-.033-.11-.101-.087-.15.02-.052.097-.065.168-.032.07.034.111.102.087.152m.396.452c-.047.045-.137.023-.199-.046-.064-.07-.076-.163-.029-.207.049-.045.136-.023.2.046.063.07.076.162.028.207m.384.576c-.06.043-.158.004-.218-.086s-.06-.195.002-.238c.06-.043.156-.005.218.084.06.09.06.197-.002.24m.526.557c-.054.06-.168.044-.25-.038-.086-.082-.109-.196-.056-.255.055-.062.168-.043.252.038s.11.195.054.255m.727.322c-.024.078-.134.114-.244.081-.11-.035-.182-.126-.16-.205.023-.08.133-.116.244-.081s.182.126.16.205m.797.06c.004.082-.09.15-.206.152-.117.003-.212-.065-.212-.146 0-.083.092-.15.208-.152s.21.064.21.146m.742-.13c.015.082-.066.163-.182.186-.113.022-.218-.028-.232-.108-.015-.082.067-.165.18-.187.117-.021.22.029.234.11"/>
</svg>
