<svg width="126" height="22" fill="none" color="#00D1FF" viewBox="0 0 126 22" xmlns="http://www.w3.org/2000/svg">
  <path fill="#00D1FF" d="M7.007 4.805a.95.95 0 0 0-.75-.35H.182a.18.18 0 0 1-.131-.052A.16.16 0 0 1 0 4.29V.165Q0 .103.05.052A.18.18 0 0 1 .183 0h6.42q2.43 0 4.192 2l1.56 1.918-3.038 3.733zm11.22-2.825Q19.987 0 22.438 0h6.4q.08 0 .12.041.04.042.041.124V4.29a.18.18 0 0 1-.04.113q-.041.051-.122.051h-6.075a.95.95 0 0 0-.75.351l-4.475 5.486 4.496 5.527q.303.33.729.33h6.075q.08 0 .122.052.04.052.04.134v4.124a.18.18 0 0 1-.04.113q-.041.052-.122.052h-6.4q-2.45 0-4.191-2l-3.727-4.579-3.726 4.579q-1.763 2-4.212 2h-6.4q-.081 0-.121-.052a.2.2 0 0 1-.04-.134v-4.125q-.001-.06.04-.113.04-.051.121-.052h6.075q.425 0 .75-.35l4.394-5.403z"/>
  <path fill="#fff" d="M42.9 3.86v11.86h8.8v2.14H40.4v-14zm10.565 3.16h2.32v10.84h-2.32zm0-3.72h2.32v2.32h-2.32zm7.541 3.72h7.5v14.76h-2.32v-5.4l-1.74 1.48h-3.44c-1.58 0-2.84-1.32-2.84-2.84V9.86c0-1.58 1.32-2.84 2.84-2.84m.62 8.84h3.86c.38 0 .7-.3.7-.7V9.04h-4.56c-.64 0-1.16.5-1.16 1.14v4.52c0 .66.52 1.16 1.16 1.16m12.914 0h3.76c.38 0 .7-.3.7-.7V7.02h2.32v10.84H79V16.4l-1.68 1.46H73.9c-1.52 0-2.82-1.26-2.82-2.84v-8h2.3v7.68c0 .66.5 1.16 1.16 1.16m9.393-8.84h2.32v10.84h-2.32zm0-3.72h2.32v2.32h-2.32zm12.721 3.72V3.14h2.32v14.72h-2.32v-1.48l-1.74 1.48h-3.44c-1.58 0-2.84-1.32-2.84-2.84V9.86c0-1.58 1.32-2.84 2.84-2.84zm-4.56 8.84h3.86c.38 0 .7-.3.7-.7V9.04h-4.56c-.64 0-1.16.5-1.16 1.14v4.52c0 .66.52 1.16 1.16 1.16m9.496-8.84h2.32v10.84h-2.32zm0-3.72h2.32v2.32h-2.32zm11.5 12.56v2h-2.78c-1.54 0-2.8-1.2-2.8-2.78V9.04h-1.88V7.02h1.88V4.64h2.32v2.38h3.28v2.02h-3.28v5.7c0 .66.44 1.12 1.1 1.12zm3.497 5.92 2.16-4.56-4.8-10.2h2.52l3.48 7.72 3.32-7.72h2.48l-6.68 14.76z"/>
</svg>
