<svg width="24" height="24" fill="none" viewBox="0 0 24 24" xmlns="http://www.w3.org/2000/svg">
  <path fill="#fff" d="M6.524 7.302c.553 2.073 1.018 3.782 1.034 3.797.015.016.35-1.172.742-2.64l1.021-3.813.307-1.146h2.381c1.31 0 2.382.012 2.382.026 0 .024 1.969 7.43 2.012 7.569.01.032.418-1.447.906-3.287l1.017-3.827.13-.481h2.683c1.474 0 2.682.022 2.684.05 0 .027-1.112 3.852-2.474 8.5l-2.476 8.449h-2.339l-2.339.001-.1-.349c-.056-.191-.55-1.945-1.098-3.896a298 298 0 0 0-1.014-3.562c-.009-.01-.51 1.744-1.112 3.895L9.775 20.5H7.44c-2.167.001-2.339-.007-2.371-.115-.02-.064-1.129-3.837-2.464-8.384L.139 3.615c-.033-.11.114-.116 2.672-.1l2.707.018z"/>
</svg>
