<svg width="24" height="24" fill="none" viewBox="0 0 24 24" xmlns="http://www.w3.org/2000/svg">
  <path fill="#fff" fill-rule="evenodd" d="M20.394 4.944a2.66 2.66 0 0 1 1.876 1.875c.442 1.654.443 5.106.443 5.106s0 3.452-.443 5.106a2.66 2.66 0 0 1-1.876 1.875c-1.653.444-8.287.444-8.287.444s-6.634 0-8.288-.444a2.66 2.66 0 0 1-1.875-1.875C1.5 15.377 1.5 11.925 1.5 11.925s0-3.452.444-5.106a2.66 2.66 0 0 1 1.875-1.875C5.473 4.5 12.107 4.5 12.107 4.5s6.634 0 8.287.444m-4.9 6.981-5.51 3.182V8.744z" clip-rule="evenodd"/>
</svg>
